<?xml version="1.0" encoding="UTF-8"?>
<svg version="1.1" xmlns="http://www.w3.org/2000/svg" width="256" height="247">
<path d="M0 0 C0.82660431 -0.00445784 1.65320861 -0.00891569 2.50486153 -0.01350862 C3.4128208 -0.01332426 4.32078006 -0.01313989 5.25625324 -0.01294994 C6.2209739 -0.01662663 7.18569456 -0.02030332 8.17964917 -0.02409142 C11.42689431 -0.03514422 14.67410746 -0.03897481 17.9213686 -0.04278088 C20.24377768 -0.04904432 22.56618575 -0.05569101 24.88859272 -0.0626936 C31.2089951 -0.08011427 37.52938991 -0.09065827 43.84981036 -0.09889913 C47.7972567 -0.104047 51.74470068 -0.11012283 55.69214535 -0.11641026 C66.62365107 -0.13328112 77.5551547 -0.1479159 88.48667145 -0.155159 C91.32313952 -0.15706886 94.15960759 -0.15898919 96.99607563 -0.16094494 C98.0535467 -0.16167055 98.0535467 -0.16167055 99.13238082 -0.16241082 C110.54995476 -0.17070928 121.96742386 -0.19604318 133.38495203 -0.22852562 C145.11009641 -0.26161092 156.83518755 -0.2796091 168.56037885 -0.28280324 C175.14242512 -0.28515558 181.72430571 -0.2941403 188.30630779 -0.31926441 C194.49920703 -0.34252101 200.69183121 -0.34678786 206.88476276 -0.33650303 C209.15673264 -0.33600698 211.42871594 -0.34234773 213.70064449 -0.35605907 C216.80495996 -0.37374442 219.90828477 -0.36668771 223.0126009 -0.35352612 C223.90940655 -0.36449536 224.80621221 -0.37546461 225.73019379 -0.38676625 C231.61163823 -0.32665971 236.0216842 0.849235 240.95188618 4.13422108 C244.5177485 7.93013903 245.07764847 11.37124574 245.04954243 16.45843983 C245.04631977 17.48646717 245.04309711 18.51449451 245.0397768 19.5736742 C245.0313979 20.64552967 245.02301899 21.71738514 245.01438618 22.82172108 C245.00987446 23.90517811 245.00536274 24.98863514 245.0007143 26.1049242 C244.98892361 28.78141193 244.97246681 31.45778885 244.95188618 34.13422108 C243.86935078 34.13642092 243.86935078 34.13642092 242.76494598 34.1386652 C225.16928071 34.17578718 207.5738248 34.2348731 189.97831726 34.31812382 C181.46909697 34.35785954 172.95996842 34.39027971 164.45066547 34.40521717 C157.03018462 34.41826213 149.60990612 34.44529897 142.18953925 34.48883414 C138.2638793 34.51138536 134.33846832 34.52713559 130.41273785 34.52610493 C126.70995337 34.52535453 123.00771792 34.54345562 119.30507565 34.57538891 C117.31409355 34.58783341 115.32301894 34.58085356 113.33201313 34.57307911 C103.32152191 34.6881882 93.91832858 36.29432404 86.44407368 43.44672108 C78.08287709 52.90231512 76.06922538 63.79190298 76.56126118 76.08734608 C77.38751701 87.1754954 85.22321333 94.11177884 92.56272602 101.68451405 C94.3151301 103.51329708 95.98512813 105.40402146 97.63938618 107.32172108 C100.20901692 110.29148897 102.82008173 113.21933178 105.45188618 116.13422108 C108.71579466 119.75098453 111.93979567 123.39811716 115.13938618 127.07172108 C117.22399782 129.44386536 119.33617262 131.78978173 121.45188618 134.13422108 C124.71770078 137.75309671 127.94493649 141.40105493 131.14329243 145.07953358 C133.19853395 147.41442999 135.29431651 149.71001642 137.38938618 152.00922108 C151.12376573 167.22776171 151.12376573 167.22776171 150.95188618 175.13422108 C145.34169043 178.74279032 140.19978935 178.55987218 133.66087055 178.52240467 C131.96690647 178.53029011 131.96690647 178.53029011 130.23872089 178.53833485 C126.50755158 178.55152992 122.77680981 178.54279333 119.04563618 178.53265858 C116.44216041 178.53468057 113.8386852 178.53759305 111.23521137 178.54135609 C105.77451193 178.54680967 100.31393429 178.53963907 94.85325336 178.52533436 C88.57422296 178.50907394 82.29548586 178.51424944 76.0164628 178.53081357 C69.94560744 178.54617791 63.87488008 178.54440945 57.80401325 178.53566837 C55.23661984 178.53367852 52.66921887 178.53608252 50.1018343 178.54310703 C14.08485573 178.61997501 14.08485573 178.61997501 3.95188618 169.13422108 C-13.21765682 150.85022498 -11.51790872 118.88622966 -11.48170757 95.76312733 C-11.48627911 93.18051995 -11.49158755 90.59791378 -11.49759197 88.01530933 C-11.50645619 82.64758159 -11.50441018 77.28001802 -11.49415874 71.91229725 C-11.48259179 65.71907587 -11.49692886 59.52628321 -11.52355522 53.33311802 C-11.54837295 47.33373508 -11.55089626 41.33457334 -11.54443836 35.33513165 C-11.54428507 32.79657681 -11.55033561 30.25801368 -11.56272984 27.7194891 C-11.57757187 24.18756213 -11.56701803 20.656596 -11.54982281 17.12469959 C-11.55949078 16.08006046 -11.56915874 15.03542133 -11.57911968 13.95912647 C-11.53393415 9.53700574 -11.48538781 6.87517937 -9.20425701 3.00981617 C-6.21825322 0.41233837 -3.82067258 0.00956444 0 0 Z " fill="#7082D5" transform="translate(11.048113822937012,-0.13422107696533203)"/>
<path d="M0 0 C0.88150223 -0.00990463 1.76300446 -0.01980927 2.67121887 -0.03001404 C3.63073456 -0.02551239 4.59025024 -0.02101074 5.57884216 -0.01637268 C6.59563553 -0.02323593 7.61242889 -0.03009918 8.66003418 -0.03717041 C12.02691054 -0.05549346 15.39332302 -0.05159071 18.76023865 -0.0459137 C21.10471752 -0.05047501 23.44919506 -0.05578043 25.79367065 -0.0617981 C30.71397826 -0.07074165 35.63412371 -0.06829437 40.5544281 -0.05836487 C46.8400266 -0.04691274 53.12506017 -0.06702309 59.41058445 -0.09628201 C64.25697352 -0.11469557 69.10322878 -0.11434057 73.94964409 -0.10864449 C76.26553575 -0.10849169 78.58143672 -0.11450105 80.897295 -0.12693596 C84.14956813 -0.14192946 87.40081823 -0.13110454 90.65306091 -0.11402893 C91.59840698 -0.1236969 92.54375305 -0.13336487 93.51774597 -0.14332581 C102.17715818 -0.04883627 111.01089605 2.10353189 117.5063324 8.13768005 C118.19598083 8.7512738 118.88562927 9.36486755 119.59617615 9.99705505 C126.08901157 17.86560016 126.14359843 25.02037215 126.07054138 34.86253357 C126.07432953 36.32032288 126.07983364 37.77810858 126.08691406 39.23588562 C126.10082032 43.17599341 126.08973378 47.11566217 126.07320285 51.05574536 C126.05930309 55.18844229 126.06581792 59.32111501 126.06933594 63.4538269 C126.07203388 70.39140356 126.05859735 77.32880678 126.03538513 84.26634216 C126.00876748 92.27691771 126.00703316 100.2872036 126.0187735 108.29780823 C126.0295671 116.01855253 126.02335248 123.73919248 126.00921822 131.45992851 C126.00347318 134.73927731 126.00352937 138.01854937 126.00828362 141.29789925 C126.01306969 145.16154413 126.00288466 149.02487336 125.98132896 152.88845825 C125.97578344 154.30295179 125.9752752 155.71747581 125.98028183 157.13197136 C126.02337998 171.05871448 126.02337998 171.05871448 122.5688324 176.38768005 C117.40435782 180.81155612 113.29616973 180.95928587 106.8143158 180.89561462 C105.83745363 180.90185459 104.86059146 180.90809455 103.85412741 180.9145236 C100.58365272 180.93046735 97.31392188 180.91784354 94.04344177 180.90525818 C91.69763759 180.91067866 89.35183681 180.9178009 87.00604248 180.92649841 C80.63627854 180.94474327 74.26677358 180.93765923 67.89700508 180.92498207 C61.90872217 180.91588635 55.92046306 180.92282662 49.93218082 180.92869085 C37.34910535 180.94009276 24.7661465 180.9269891 12.18309015 180.90548939 C1.38990026 180.88761871 -9.40311754 180.89072293 -20.19630432 180.90916443 C-32.73482582 180.93057806 -45.27324513 180.93899416 -57.81178236 180.92671537 C-64.44733971 180.92039359 -71.08280115 180.9196552 -77.71835327 180.93286133 C-83.95646792 180.94440907 -90.19425732 180.93641326 -96.43233681 180.9132843 C-98.72287264 180.90799153 -101.01343581 180.90952064 -103.3039608 180.91833496 C-106.42856143 180.92925111 -109.55211711 180.9155734 -112.676651 180.89561462 C-113.58501788 180.90453751 -114.49338475 180.9134604 -115.4292779 180.92265368 C-120.87007241 180.85515323 -124.23233525 180.19491634 -128.4311676 176.38768005 C-130.56660224 172.68337808 -130.66808848 169.43514874 -130.6264801 165.2118988 C-130.62003479 164.05496521 -130.61358948 162.89803162 -130.60694885 161.70603943 C-130.59019104 160.50785583 -130.57343323 159.30967224 -130.5561676 158.07518005 C-130.54263245 156.24890076 -130.54263245 156.24890076 -130.52882385 154.38572693 C-130.50529797 151.38617731 -130.47242413 148.38702961 -130.4311676 145.38768005 C-129.53663879 145.38621349 -128.64210999 145.38474693 -127.72047424 145.38323593 C-105.94494389 145.34616878 -84.16956919 145.28715516 -62.39416504 145.20377731 C-51.86369067 145.16398429 -41.33329106 145.13159311 -30.80274963 145.11668396 C-21.62329496 145.10366884 -12.44400476 145.07670766 -3.26464272 145.03306699 C1.5948552 145.01044912 6.45415022 144.99476957 11.31370544 144.9957962 C15.89056462 144.99654262 20.46697523 144.97859923 25.04371834 144.94651222 C26.72062191 144.93801507 28.3975758 144.93626205 30.0744915 144.94187737 C43.35770408 145.00145882 43.35770408 145.00145882 54.7407074 138.52830505 C63.62184324 127.88852845 67.40405159 115.68987892 66.31077576 101.80760193 C63.87980775 80.00493428 50.44768981 65.66472397 34.4282074 52.02830505 C31.67662835 49.60044119 29.14237166 46.97018087 26.5688324 44.35643005 C24.62992238 42.4478155 22.63183689 40.66057454 20.5688324 38.88768005 C17.05741592 35.87005652 13.81575837 32.65408925 10.5688324 29.35643005 C8.62992238 27.4478155 6.63183689 25.66057454 4.5688324 23.88768005 C-8.20411682 12.88523865 -8.20411682 12.88523865 -8.7436676 6.95018005 C-8.4311676 3.38768005 -8.4311676 3.38768005 -6.68858433 1.68925381 C-4.1933957 0.25058633 -2.85290962 0.00907714 0 0 Z " fill="#7082D5" transform="translate(130.43116760253906,66.61231994628906)"/>
</svg>
